{"accessors" : [{"bufferView" : 0, "byteOffset" : 0, "componentType" : 5123, "count" : 18816, "type" : "SCALAR", "max" : [18815], "min" : [0]}, {"bufferView" : 1, "byteOffset" : 0, "componentType" : 5126, "count" : 18816, "type" : "VEC3", "max" : [1.5462487936019897, 0.6274752616882324, 6.6408257484436035], "min" : [-1.5462486743927002, -0.6855676174163818, -0.004638913087546825], "name" : "POSITION"}, {"bufferView" : 1, "byteOffset" : 12, "componentType" : 5126, "count" : 18816, "type" : "VEC3", "max" : [0.9999346733093262, 0.9999986886978149, 1.0000029802322388], "min" : [-0.9999346733093262, -0.9999978542327881, -1.0000042915344238], "name" : "NORMAL"}], "asset" : {"generator" : "Aspose.3D 21.11", "version" : "2.0"}, "buffers" : [{"uri" : "data:application/octet-stream;base64,", "byteLength" : 489224}], "bufferViews" : [{"buffer" : 0, "byteOffset" : 0, "byteLength" : 37632, "target" : 34963}, {"buffer" : 0, "byteOffset" : 37636, "byteLength" : 451584, "byteStride" : 24, "target" : 34962}], "cameras" : [{"perspective" : {"aspectRatio" : 1.777777777777778, "yfov" : 0.8575560450553893, "zfar" : 10000, "znear" : 10.000000149011612}, "type" : "perspective", "name" : "Camera"}], "materials" : [{"name" : "", "pbrMetallicRoughness" : {"baseColorFactor" : [0.800000011920929, 0.800000011920929, 0.800000011920929, 1], "metallicFactor" : 0, "roughnessFactor" : 0}, "emissiveFactor" : [0.800000011920929, 0.800000011920929, 0.800000011920929], "alphaMode" : "OPAQUE", "doubleSided" : false}], "meshes" : [{"primitives" : [{"attributes" : {"POSITION" : 1, "NORMAL" : 2}, "indices" : 0, "material" : 0, "mode" : 4}], "name" : "Mesh"}], "nodes" : [{"matrix" : [100, 0, 0, 0, 0, -1.6292067961387602E-05, -99.99999999999868, 0, 0, 99.99999999999868, -1.6292067961387602E-05, 0, 0, 0, 0, 1], "mesh" : 0, "name" : "Cube"}, {"camera" : 0, "matrix" : [-82.35700970370752, 16.832354750532367, -54.16636212831409, 0, 5.906773690243326, 97.52124646328184, 21.324082930341635, 0, 56.41305679747977, 14.362392621010917, -81.30983151479441, 0, 748.1131591796875, 534.3665161132812, 650.7639770507812, 1], "name" : "Camera"}], "scene" : 0, "scenes" : [{"nodes" : [0, 1]}]}